<svg width="32" height="32" viewBox="0 0 32 32" fill="none" xmlns="http://www.w3.org/2000/svg">
<path d="M15.6375 10.8V20.475M20.475 15.6375H10.8M30.15 15.6375C30.15 17.5433 29.7746 19.4305 29.0453 21.1912C28.316 22.9519 27.247 24.5518 25.8994 25.8994C24.5518 27.247 22.9519 28.316 21.1912 29.0453C19.4305 29.7746 17.5433 30.15 15.6375 30.15C13.7317 30.15 11.8445 29.7746 10.0838 29.0453C8.32307 28.316 6.72322 27.247 5.37561 25.8994C4.028 24.5518 2.95902 22.9519 2.2297 21.1912C1.50038 19.4305 1.125 17.5433 1.125 15.6375C1.125 11.7885 2.65399 8.09723 5.37561 5.37561C8.09723 2.65399 11.7885 1.125 15.6375 1.125C19.4865 1.125 23.1778 2.65399 25.8994 5.37561C28.621 8.09723 30.15 11.7885 30.15 15.6375Z" stroke="#1E75FF" stroke-width="2.25" stroke-linecap="round" stroke-linejoin="round"/>
</svg>
