<svg width="60" height="60" viewBox="0 0 60 60" fill="none" xmlns="http://www.w3.org/2000/svg">
<path d="M55.5654 27.5491L46.5254 27.5963C44.5849 27.5963 43.0231 26.037 43.0231 24.0996L43.0704 19.5159C43.0704 17.5785 41.5085 16.0191 39.568 16.0191L34.977 16.0664C33.0365 16.0664 31.4746 14.507 31.4746 12.5696L31.522 3.54405C31.522 1.60664 33.1311 0.0472425 35.0243 0.0472425L44.0643 0C46.0048 0 47.5667 1.55937 47.5667 3.49678L47.5194 8.08043C47.5194 10.0178 49.0812 11.5772 51.0218 11.5772L55.6127 11.53C57.5533 11.53 59.1151 13.0894 59.1151 15.0268L59.0678 24.0523C59.0678 25.9424 57.5059 27.5018 55.5654 27.5491Z" fill="#1E75FF"/>
<path d="M55.5648 31.3294L46.5248 31.3767C44.5843 31.3767 43.0225 32.9833 43.0225 34.8735L42.9751 39.4571C42.9751 41.3945 41.3659 42.9539 39.4727 42.9539L34.8818 43.0012C32.9412 43.0012 31.3793 44.6078 31.3793 46.4979L31.332 55.5235C31.332 57.4609 32.8939 59.0203 34.8344 59.0203L43.8744 58.973C45.8149 58.973 47.3768 57.3664 47.3768 55.4762L47.4241 50.8926C47.4241 48.9552 49.0333 47.3958 50.9265 47.3958L55.5175 47.3485C57.458 47.3485 59.0199 45.7419 59.0199 43.8517L59.0672 34.8262C59.0672 32.8416 57.5053 31.2822 55.5648 31.3294Z" fill="#1E75FF"/>
<path d="M3.54973 31.5657L12.5897 31.5184C14.5302 31.5184 16.0921 33.0778 16.0921 35.0152L16.0448 39.5989C16.0448 41.5363 17.6066 43.0957 19.5471 43.0957L24.1381 43.0484C26.0786 43.0484 27.6405 44.6078 27.6405 46.5452L27.5932 55.5707C27.5932 57.5081 25.984 59.0675 24.0908 59.0675L15.0508 59.1148C13.1103 59.1148 11.5485 57.5554 11.5485 55.618L11.5958 51.0343C11.5958 49.0969 10.0339 47.5375 8.09339 47.5375L3.50241 47.5848C1.56189 47.5848 0 46.0254 0 44.088L0.047347 35.0625C0.047347 33.1723 1.60921 31.6129 3.54973 31.5657Z" fill="#1E75FF"/>
<path d="M3.54925 27.7853L12.5892 27.7381C14.5298 27.7381 16.0916 26.1314 16.0916 24.2413L16.139 19.6576C16.139 17.7202 17.7482 16.1609 19.6413 16.1609L24.2323 16.1136C26.1728 16.1136 27.7347 14.507 27.7347 12.6168L27.782 3.59126C27.782 1.65385 26.2202 0.0944824 24.2796 0.0944824L15.2397 0.141725C13.2992 0.141725 11.7373 1.74837 11.7373 3.63853L11.69 8.22215C11.69 10.1596 10.0807 11.719 8.18755 11.719L3.5966 11.7662C1.65608 11.7662 0.0941931 13.3729 0.0941931 15.263L0.046875 24.2885C0.046875 26.2732 1.60874 27.8326 3.54925 27.7853Z" fill="#1E75FF"/>
</svg>
