<svg width="25" height="25" viewBox="0 0 25 25" fill="none" xmlns="http://www.w3.org/2000/svg">
<path fill-rule="evenodd" clip-rule="evenodd" d="M10.5873 3.79528C9.70093 3.79145 8.82244 3.96225 8.00204 4.29793C7.18163 4.6336 6.43538 5.12759 5.80588 5.75167C5.17639 6.37575 4.67597 7.11771 4.33322 7.93519C3.99047 8.75266 3.81208 9.62964 3.80826 10.5161C3.80443 11.4025 3.97523 12.281 4.31091 13.1014C4.64658 13.9218 5.14057 14.668 5.76465 15.2975C6.38873 15.927 7.13069 16.4274 7.94817 16.7702C8.76564 17.1129 9.64262 17.2913 10.529 17.2951C12.3192 17.3029 14.0392 16.5991 15.3105 15.3388C16.5818 14.0784 17.3004 12.3646 17.3081 10.5744C17.3159 8.78417 16.6121 7.06423 15.3517 5.7929C14.0913 4.52158 12.3775 3.80301 10.5873 3.79528ZM2.30827 10.5096C2.31417 9.18469 2.63907 7.8807 3.25549 6.70793C3.87191 5.53516 4.76172 4.5281 5.84964 3.77193C6.93757 3.01577 8.19161 2.53274 9.50568 2.36371C10.8198 2.19469 12.1552 2.34463 13.3991 2.80087C14.643 3.2571 15.7587 4.0062 16.6518 4.9848C17.545 5.9634 18.1893 7.14272 18.5303 8.42299C18.8713 9.70326 18.8989 11.0468 18.6108 12.34C18.3228 13.6332 17.7275 14.8381 16.8753 15.8525L21.545 20.5628C21.6184 20.6317 21.6772 20.7148 21.7178 20.807C21.7583 20.8991 21.78 20.9986 21.7813 21.0993C21.7826 21.2 21.7637 21.2999 21.7256 21.3931C21.6874 21.4864 21.6309 21.571 21.5594 21.6419C21.4879 21.7128 21.4028 21.7686 21.3092 21.8059C21.2157 21.8432 21.1156 21.8613 21.0149 21.8591C20.9142 21.8569 20.815 21.8344 20.7232 21.793C20.6313 21.7516 20.5488 21.6922 20.4805 21.6182L15.8108 16.908C14.6017 17.9062 13.1331 18.5393 11.5772 18.733C10.0212 18.9266 8.44229 18.6729 7.02536 18.0014C5.60844 17.33 4.4122 16.2687 3.57677 14.9418C2.74134 13.615 2.30132 12.0775 2.30827 10.5096Z" fill="#1E75FF"/>
</svg>
