<svg width="18" height="18" viewBox="0 0 18 18" fill="none" xmlns="http://www.w3.org/2000/svg">
<path d="M14.0625 9.5625H15.1875C15.3367 9.5625 15.4798 9.50324 15.5852 9.39775C15.6907 9.29226 15.75 9.14918 15.75 9C15.75 8.85082 15.6907 8.70774 15.5852 8.60225C15.4798 8.49676 15.3367 8.4375 15.1875 8.4375H14.0625C13.9133 8.4375 13.7702 8.49676 13.6648 8.60225C13.5593 8.70774 13.5 8.85082 13.5 9C13.5 9.14918 13.5593 9.29226 13.6648 9.39775C13.7702 9.50324 13.9133 9.5625 14.0625 9.5625ZM9 4.5C9 4.35082 9.05926 4.20774 9.16475 4.10225C9.27024 3.99676 9.41332 3.9375 9.5625 3.9375H15.1875C15.3367 3.9375 15.4798 3.99676 15.5852 4.10225C15.6907 4.20774 15.75 4.35082 15.75 4.5C15.75 4.64918 15.6907 4.79226 15.5852 4.89775C15.4798 5.00324 15.3367 5.0625 15.1875 5.0625H9.5625C9.41332 5.0625 9.27024 5.00324 9.16475 4.89775C9.05926 4.79226 9 4.64918 9 4.5ZM9 13.5C9 13.3508 9.05926 13.2077 9.16475 13.1023C9.27024 12.9968 9.41332 12.9375 9.5625 12.9375H15.1875C15.3367 12.9375 15.4798 12.9968 15.5852 13.1023C15.6907 13.2077 15.75 13.3508 15.75 13.5C15.75 13.6492 15.6907 13.7923 15.5852 13.8977C15.4798 14.0032 15.3367 14.0625 15.1875 14.0625H9.5625C9.41332 14.0625 9.27024 14.0032 9.16475 13.8977C9.05926 13.7923 9 13.6492 9 13.5ZM2.8125 5.0625H3.9375C4.08668 5.0625 4.22976 5.00324 4.33525 4.89775C4.44074 4.79226 4.5 4.64918 4.5 4.5C4.5 4.35082 4.44074 4.20774 4.33525 4.10225C4.22976 3.99676 4.08668 3.9375 3.9375 3.9375H2.8125C2.66332 3.9375 2.52024 3.99676 2.41475 4.10225C2.30926 4.20774 2.25 4.35082 2.25 4.5C2.25 4.64918 2.30926 4.79226 2.41475 4.89775C2.52024 5.00324 2.66332 5.0625 2.8125 5.0625ZM3.9375 14.0625H2.8125C2.66332 14.0625 2.52024 14.0032 2.41475 13.8977C2.30926 13.7923 2.25 13.6492 2.25 13.5C2.25 13.3508 2.30926 13.2077 2.41475 13.1023C2.52024 12.9968 2.66332 12.9375 2.8125 12.9375H3.9375C4.08668 12.9375 4.22976 12.9968 4.33525 13.1023C4.44074 13.2077 4.5 13.3508 4.5 13.5C4.5 13.6492 4.44074 13.7923 4.33525 13.8977C4.22976 14.0032 4.08668 14.0625 3.9375 14.0625ZM2.25 9C2.25 8.85082 2.30926 8.70774 2.41475 8.60225C2.52024 8.49676 2.66332 8.4375 2.8125 8.4375H8.4375C8.58668 8.4375 8.72976 8.49676 8.83525 8.60225C8.94074 8.70774 9 8.85082 9 9C9 9.14918 8.94074 9.29226 8.83525 9.39775C8.72976 9.50324 8.58668 9.5625 8.4375 9.5625H2.8125C2.66332 9.5625 2.52024 9.50324 2.41475 9.39775C2.30926 9.29226 2.25 9.14918 2.25 9ZM6.75 2.8125C6.30245 2.8125 5.87323 2.99029 5.55676 3.30676C5.24029 3.62323 5.0625 4.05245 5.0625 4.5C5.0625 4.94755 5.24029 5.37677 5.55676 5.69324C5.87323 6.00971 6.30245 6.1875 6.75 6.1875C7.19755 6.1875 7.62677 6.00971 7.94324 5.69324C8.25971 5.37677 8.4375 4.94755 8.4375 4.5C8.4375 4.05245 8.25971 3.62323 7.94324 3.30676C7.62677 2.99029 7.19755 2.8125 6.75 2.8125ZM9.5625 9C9.5625 8.55245 9.74029 8.12323 10.0568 7.80676C10.3732 7.49029 10.8024 7.3125 11.25 7.3125C11.6976 7.3125 12.1268 7.49029 12.4432 7.80676C12.7597 8.12323 12.9375 8.55245 12.9375 9C12.9375 9.44755 12.7597 9.87677 12.4432 10.1932C12.1268 10.5097 11.6976 10.6875 11.25 10.6875C10.8024 10.6875 10.3732 10.5097 10.0568 10.1932C9.74029 9.87677 9.5625 9.44755 9.5625 9ZM6.75 11.8125C6.30245 11.8125 5.87323 11.9903 5.55676 12.3068C5.24029 12.6232 5.0625 13.0524 5.0625 13.5C5.0625 13.9476 5.24029 14.3768 5.55676 14.6932C5.87323 15.0097 6.30245 15.1875 6.75 15.1875C7.19755 15.1875 7.62677 15.0097 7.94324 14.6932C8.25971 14.3768 8.4375 13.9476 8.4375 13.5C8.4375 13.0524 8.25971 12.6232 7.94324 12.3068C7.62677 11.9903 7.19755 11.8125 6.75 11.8125Z" fill="white"/>
</svg>
