<svg width="27" height="27" viewBox="0 0 27 27" fill="none" xmlns="http://www.w3.org/2000/svg">
<path d="M26.823 13.8079C26.8241 12.8879 26.7458 11.9696 26.5888 11.063H13.7695V16.2621H21.1118C20.9616 17.0925 20.6436 17.884 20.177 18.5891C19.7104 19.2941 19.1049 19.898 18.3969 20.3644V23.7392H22.7789C25.3447 21.39 26.823 17.9158 26.823 13.8079Z" fill="#4285F4"/>
<path d="M13.7703 27C17.4387 27 20.5274 25.8038 22.7797 23.7414L18.3977 20.3666C17.1781 21.1878 15.6073 21.6565 13.7703 21.6565C10.2247 21.6565 7.21528 19.2829 6.13914 16.0843H1.625V19.5623C2.7564 21.798 4.49128 23.6775 6.63594 24.9909C8.78061 26.3043 11.2507 26.9999 13.7703 27V27Z" fill="#34A853"/>
<path d="M6.13933 16.0839C5.57041 14.4078 5.57041 12.5927 6.13933 10.9166V7.43866H1.62519C0.673417 9.31948 0.177734 11.3953 0.177734 13.5002C0.177734 15.6052 0.673417 17.681 1.62519 19.5618L6.13933 16.0839Z" fill="#FBBC04"/>
<path d="M13.7703 5.34437C15.7089 5.31292 17.582 6.04029 18.9849 7.36927L22.8647 3.51633C20.4045 1.22159 17.1453 -0.0382606 13.7703 0.000885682C11.2507 0.000999723 8.78061 0.696578 6.63594 2.00997C4.49128 3.32335 2.7564 5.20285 1.625 7.43864L6.13914 10.9166C7.21528 7.718 10.2247 5.34437 13.7703 5.34437Z" fill="#EA4335"/>
</svg>
