<svg width="48" height="16" viewBox="0 0 48 16" fill="none" xmlns="http://www.w3.org/2000/svg">
<path d="M10.3402 7.6263L8.65806 7.63509C8.29697 7.63509 8.00634 7.34492 8.00634 6.98441L8.01515 6.13149C8.01515 5.77098 7.72452 5.48081 7.36343 5.48081L6.50915 5.48961C6.14806 5.48961 5.85742 5.19944 5.85742 4.83893L5.86623 3.15947C5.86623 2.79896 6.16567 2.50879 6.51795 2.50879L8.2001 2.5C8.56119 2.5 8.85182 2.79016 8.85182 3.15068L8.84301 4.0036C8.84301 4.36411 9.13364 4.65428 9.49473 4.65428L10.349 4.64548C10.7101 4.64548 11.0007 4.93565 11.0007 5.29616L10.9919 6.97562C10.9919 7.32734 10.7013 7.61751 10.3402 7.6263Z" fill="#95959C"/>
<path d="M10.3393 8.32978L8.65714 8.33858C8.29605 8.33858 8.00542 8.63754 8.00542 8.98926L7.99661 9.84218C7.99661 10.2027 7.69717 10.4929 7.34489 10.4929L6.49061 10.5016C6.12952 10.5016 5.83888 10.8006 5.83888 11.1523L5.83008 12.8318C5.83008 13.1923 6.12071 13.4825 6.4818 13.4825L8.16394 13.4737C8.52503 13.4737 8.81567 13.1747 8.81567 12.823L8.82447 11.9701C8.82447 11.6096 9.12391 11.3194 9.4762 11.3194L10.3305 11.3106C10.6916 11.3106 10.9822 11.0116 10.9822 10.6599L10.991 8.98047C10.991 8.61116 10.7004 8.32099 10.3393 8.32978Z" fill="#95959C"/>
<path d="M0.660528 8.37378L2.34268 8.36499C2.70377 8.36499 2.99439 8.65515 2.99439 9.01567L2.98559 9.86859C2.98559 10.2291 3.27622 10.5193 3.63731 10.5193L4.49159 10.5105C4.85268 10.5105 5.14332 10.8006 5.14332 11.1612L5.13451 12.8406C5.13451 13.2011 4.83507 13.4913 4.48279 13.4913L2.80064 13.5001C2.43955 13.5001 2.14892 13.2099 2.14892 12.8494L2.15773 11.9965C2.15773 11.636 1.8671 11.3458 1.50601 11.3458L0.651723 11.3546C0.290635 11.3546 0 11.0644 0 10.7039L0.00881027 9.02446C0.00881027 8.67274 0.299439 8.38257 0.660528 8.37378Z" fill="#95959C"/>
<path d="M0.661484 7.67026L2.34363 7.66146C2.70472 7.66146 2.99535 7.3625 2.99535 7.01078L3.00416 6.15786C3.00416 5.79735 3.3036 5.50719 3.65588 5.50719L4.51016 5.49839C4.87125 5.49839 5.16189 5.19943 5.16189 4.84771L5.17069 3.16825C5.17069 2.80774 4.88006 2.51758 4.51897 2.51758L2.83682 2.52637C2.47574 2.52637 2.1851 2.82533 2.1851 3.17705L2.1763 4.02996C2.1763 4.39048 1.87685 4.68065 1.52457 4.68065L0.670294 4.68944C0.309205 4.68944 0.0185705 4.9884 0.0185705 5.34012L0.00976562 7.01957C0.00976562 7.38888 0.300395 7.67905 0.661484 7.67026Z" fill="#95959C"/>
<path d="M16.9588 12V3.27273H20.0696C20.7486 3.27273 21.3111 3.39631 21.7571 3.64347C22.2031 3.89062 22.5369 4.22869 22.7585 4.65767C22.9801 5.08381 23.0909 5.56392 23.0909 6.09801C23.0909 6.63494 22.9787 7.1179 22.7543 7.54688C22.5327 7.97301 22.1974 8.31108 21.7486 8.56108C21.3026 8.80824 20.7415 8.93182 20.0653 8.93182H17.9261V7.81534H19.946C20.375 7.81534 20.723 7.74148 20.9901 7.59375C21.2571 7.44318 21.4531 7.23864 21.5781 6.98011C21.7031 6.72159 21.7656 6.42756 21.7656 6.09801C21.7656 5.76847 21.7031 5.47585 21.5781 5.22017C21.4531 4.96449 21.2557 4.7642 20.9858 4.61932C20.7188 4.47443 20.3665 4.40199 19.929 4.40199H18.2756V12H16.9588ZM28.6786 9.28551V5.45455H29.957V12H28.7042V10.8665H28.636C28.4854 11.2159 28.244 11.5071 27.9116 11.7401C27.582 11.9702 27.1715 12.0852 26.68 12.0852C26.2596 12.0852 25.8874 11.9929 25.5636 11.8082C25.2425 11.6207 24.9897 11.3438 24.805 10.9773C24.6232 10.6108 24.5323 10.1577 24.5323 9.6179V5.45455H25.8065V9.46449C25.8065 9.91051 25.93 10.2656 26.1772 10.5298C26.4244 10.794 26.7454 10.9261 27.1403 10.9261C27.3789 10.9261 27.6161 10.8665 27.8519 10.7472C28.0906 10.6278 28.288 10.4474 28.4442 10.206C28.6033 9.96449 28.6815 9.65767 28.6786 9.28551ZM32.9432 3.27273V12H31.669V3.27273H32.9432ZM39.5621 7.05256L38.4073 7.2571C38.359 7.10937 38.2823 6.96875 38.1772 6.83523C38.0749 6.7017 37.9357 6.59233 37.7596 6.5071C37.5835 6.42187 37.3633 6.37926 37.0991 6.37926C36.7383 6.37926 36.4371 6.46023 36.1957 6.62216C35.9542 6.78125 35.8335 6.98722 35.8335 7.24006C35.8335 7.45881 35.9144 7.63494 36.0763 7.76847C36.2383 7.90199 36.4996 8.01136 36.8604 8.09659L37.9002 8.33523C38.5025 8.47443 38.9513 8.68892 39.2468 8.97869C39.5423 9.26847 39.69 9.64489 39.69 10.108C39.69 10.5 39.5763 10.8494 39.3491 11.1562C39.1246 11.4602 38.8107 11.6989 38.4073 11.8722C38.0067 12.0455 37.5423 12.1321 37.0138 12.1321C36.2809 12.1321 35.6829 11.9759 35.2198 11.6634C34.7567 11.348 34.4727 10.9006 34.3675 10.321L35.5991 10.1335C35.6758 10.4545 35.8335 10.6974 36.0721 10.8622C36.3107 11.0241 36.6218 11.1051 37.0053 11.1051C37.4229 11.1051 37.7567 11.0185 38.0067 10.8452C38.2567 10.669 38.3817 10.4545 38.3817 10.2017C38.3817 9.99716 38.305 9.82528 38.1516 9.68608C38.0011 9.54687 37.7695 9.44176 37.457 9.37074L36.3491 9.12784C35.7383 8.98864 35.2866 8.76705 34.994 8.46307C34.7042 8.15909 34.5593 7.77415 34.5593 7.30824C34.5593 6.92187 34.6673 6.58381 34.8832 6.29403C35.0991 6.00426 35.3974 5.77841 35.7781 5.61648C36.1587 5.4517 36.5948 5.36932 37.0863 5.36932C37.7937 5.36932 38.3505 5.52273 38.7567 5.82955C39.163 6.13352 39.4315 6.54119 39.5621 7.05256ZM43.9119 12.1321C43.267 12.1321 42.7116 11.9943 42.2457 11.7188C41.7827 11.4403 41.4247 11.0497 41.1719 10.5469C40.9219 10.0412 40.7969 9.44886 40.7969 8.76989C40.7969 8.09943 40.9219 7.50852 41.1719 6.99716C41.4247 6.4858 41.777 6.08665 42.2287 5.79972C42.6832 5.51278 43.2145 5.36932 43.8224 5.36932C44.1918 5.36932 44.5497 5.4304 44.8963 5.55256C45.2429 5.67472 45.554 5.86648 45.8295 6.12784C46.1051 6.3892 46.3224 6.72869 46.4815 7.14631C46.6406 7.56108 46.7202 8.06534 46.7202 8.65909V9.1108H41.517V8.15625H45.4716C45.4716 7.82102 45.4034 7.52415 45.267 7.26562C45.1307 7.00426 44.9389 6.7983 44.6918 6.64773C44.4474 6.49716 44.1605 6.42188 43.831 6.42188C43.473 6.42188 43.1605 6.50994 42.8935 6.68608C42.6293 6.85937 42.4247 7.08665 42.2798 7.3679C42.1378 7.64631 42.0668 7.94886 42.0668 8.27557V9.02131C42.0668 9.45881 42.1435 9.83097 42.2969 10.1378C42.4531 10.4446 42.6705 10.679 42.9489 10.8409C43.2273 11 43.5526 11.0795 43.9247 11.0795C44.1662 11.0795 44.3864 11.0455 44.5852 10.9773C44.7841 10.9062 44.956 10.8011 45.1009 10.6619C45.2457 10.5227 45.3565 10.3509 45.4332 10.1463L46.6392 10.3636C46.5426 10.7187 46.3693 11.0298 46.1193 11.2969C45.8722 11.5611 45.5611 11.767 45.1861 11.9148C44.8139 12.0597 44.3892 12.1321 43.9119 12.1321Z" fill="#EBEBF5" fill-opacity="0.6"/>
</svg>
